<?xml version="1.0" encoding="UTF-8"?>
<svg width="40px" height="40px" viewBox="0 0 40 40" version="1.1" xmlns="http://www.w3.org/2000/svg" xmlns:xlink="http://www.w3.org/1999/xlink">
    <title>TPCM2</title>
    <defs>
        <path d="M19.0649495,2.24977396 L14.3051437,4.98817522 C12.5330754,6.00767772 10.6825853,6.88435151 8.77124292,7.609873 L6.20959876,8.58224083 C5.48146224,8.85863228 5,9.55637084 5,10.3352001 L5,18.1250837 C5,23.6965666 7.5903454,28.9513728 12.0094216,32.3444817 L18.8580995,37.6031169 C19.5315547,38.1202175 20.4684453,38.1202175 21.1419005,37.6031169 L27.9905784,32.3444817 C32.4096546,28.9513728 35,23.6965666 35,18.1250837 L35,10.3352569 C35,9.55634323 34.518435,8.85854752 33.7901856,8.58221574 L31.2286133,7.61023574 C29.3173611,6.88501751 27.4670185,6.00846213 25.6951983,4.98891328 L20.935123,2.24984893 C20.3562371,1.9167438 19.6438621,1.91671524 19.0649495,2.24977396 Z M20,4.59642982 L24.4483292,7.15578137 L25.5904622,7.78895785 C27.126287,8.60863632 28.7132341,9.32970829 30.3416992,9.9476239 L32.5,10.7664298 L32.5,18.1250837 L32.4862447,18.7770703 C32.2941012,23.3274044 30.0980229,27.574368 26.4680444,30.3615822 L20,35.3264298 L13.5319556,30.3615822 L13.0232032,29.9536034 C9.5310792,27.0299875 7.5,22.7016881 7.5,18.1250837 L7.5,10.7664298 L9.65844458,9.94715202 C11.6939518,9.17449915 13.6646536,8.24087479 15.5518391,7.15514328 L20,4.59642982 Z" id="path-1"></path>
    </defs>
    <g id="TPCM2" stroke="none" stroke-width="1" fill="none" fill-rule="evenodd">
        <rect id="矩形" x="0" y="0" width="40" height="40"></rect>
        <mask id="mask-2" fill="white">
            <use xlink:href="#path-1"></use>
        </mask>
        <use id="形状结合" fill="#F45C5E" xlink:href="#path-1"></use>
        <path d="M11.944,22.96 L11.944,18.136 L13.72,18.136 L13.72,17.104 L9,17.104 L9,18.136 L10.776,18.136 L10.776,22.96 L11.944,22.96 Z M15.3902222,22.96 L15.3902222,20.96 L16.2462222,20.96 C16.7102222,20.96 17.1155556,20.8813333 17.4622222,20.724 C17.8088889,20.5666667 18.0768889,20.3426667 18.2662222,20.052 C18.4555556,19.7613333 18.5502222,19.424 18.5502222,19.04 C18.5502222,18.6506667 18.4555556,18.3106667 18.2662222,18.02 C18.0768889,17.7293333 17.8088889,17.504 17.4622222,17.344 C17.1155556,17.184 16.7102222,17.104 16.2462222,17.104 L16.2462222,17.104 L14.2302222,17.104 L14.2302222,22.96 L15.3902222,22.96 Z M16.1182222,19.976 L15.3902222,19.976 L15.3902222,18.088 L16.1182222,18.088 C16.4808889,18.088 16.7715556,18.1693333 16.9902222,18.332 C17.2088889,18.4946667 17.3182222,18.7306667 17.3182222,19.04 C17.3182222,19.3493333 17.2088889,19.5826667 16.9902222,19.74 C16.7715556,19.8973333 16.4808889,19.976 16.1182222,19.976 L16.1182222,19.976 Z M21.6764444,23.056 C22.2097778,23.056 22.6684444,22.9293333 23.0524444,22.676 C23.4364444,22.4226667 23.7004444,22.0986667 23.8444444,21.704 L23.8444444,21.704 L22.8764444,21.144 C22.7537778,21.4106667 22.5897778,21.6186667 22.3844444,21.768 C22.1791111,21.9173333 21.9351111,21.992 21.6524444,21.992 C21.3537778,21.992 21.0871111,21.912 20.8524444,21.752 C20.6177778,21.592 20.4324444,21.3626667 20.2964444,21.064 C20.1604444,20.7653333 20.0924444,20.4186667 20.0924444,20.024 C20.0924444,19.6293333 20.1604444,19.284 20.2964444,18.988 C20.4324444,18.692 20.6177778,18.464 20.8524444,18.304 C21.0871111,18.144 21.3537778,18.064 21.6524444,18.064 C21.9351111,18.064 22.1791111,18.1386667 22.3844444,18.288 C22.5897778,18.4373333 22.7537778,18.6453333 22.8764444,18.912 L22.8764444,18.912 L23.8444444,18.352 C23.7004444,17.9573333 23.4364444,17.6333333 23.0524444,17.38 C22.6684444,17.1266667 22.2097778,17 21.6764444,17 C21.1591111,17 20.6857778,17.1253333 20.2564444,17.376 C19.8271111,17.6266667 19.4884444,17.9813333 19.2404444,18.44 C18.9924444,18.8986667 18.8684444,19.4266667 18.8684444,20.024 C18.8684444,20.6213333 18.9937778,21.1506667 19.2444444,21.612 C19.4951111,22.0733333 19.8337778,22.4293333 20.2604444,22.68 C20.6871111,22.9306667 21.1591111,23.056 21.6764444,23.056 Z M25.5146667,22.96 L25.5146667,19.168 L27.0106667,21.4 L27.6186667,21.4 L29.1066667,19.184 L29.1066667,22.96 L30.2106667,22.96 L30.2106667,17.104 L29.3306667,17.104 L27.3386667,20.136 L25.3386667,17.104 L24.4186667,17.104 L24.4186667,22.96 L25.5146667,22.96 Z" id="TPCM" fill="#F45C5E"></path>
    </g>
</svg>