<!-- Generated by IcoMoon.io -->
<svg version="1.1" xmlns="http://www.w3.org/2000/svg" width="32" height="32" viewBox="0 0 32 32">
<path d="M27.3 9.2l-1.6 19.4c-0.2 1.8-1.6 3.2-3.4 3.2h-12.6c-1.8 0-3.4-1.4-3.4-3.2l-1.8-19.4h-3c-1 0-1.6-0.6-1.6-1.4s0.6-1.6 1.6-1.6h29c0.8 0 1.6 0.6 1.6 1.6s-0.6 1.6-1.6 1.6h-3.2zM24.3 9.2h-16.8l1.6 19c0 0.2 0.2 0.4 0.4 0.4h12.4c0.2 0 0.4-0.2 0.4-0.4l2-19zM17.5 24.6c0 0.8-0.6 1.6-1.6 1.6-0.8 0-1.6-0.6-1.6-1.6v-4.8c0-0.8 0.6-1.6 1.6-1.6 0.8 0 1.6 0.6 1.6 1.6v4.8zM11.5 0.2h9c0.8 0 1.6 0.6 1.6 1.6s-0.6 1.6-1.6 1.6h-9c-1-0.2-1.6-0.8-1.6-1.6s0.6-1.6 1.6-1.6z"></path>
</svg>
