<?xml version="1.0" encoding="UTF-8"?>
<svg width="61px" height="70px" viewBox="0 0 61 70" version="1.1" xmlns="http://www.w3.org/2000/svg" xmlns:xlink="http://www.w3.org/1999/xlink">
    <title>编组 91</title>
    <defs>
        <linearGradient x1="50%" y1="0%" x2="50%" y2="98.1006856%" id="linearGradient-1">
            <stop stop-color="#C5D2E3" offset="0%"></stop>
            <stop stop-color="#E5ECF6" offset="100%"></stop>
        </linearGradient>
        <linearGradient x1="43.4199936%" y1="40.8235177%" x2="67.3251034%" y2="54.2473324%" id="linearGradient-2">
            <stop stop-color="#43547C" stop-opacity="0" offset="0%"></stop>
            <stop stop-color="#489AFF" offset="100%"></stop>
        </linearGradient>
        <polygon id="path-3" points="0 17.7667906 29.2560483 1.06022338e-14 29.2560483 35.5335812 0 52.1159191"></polygon>
        <linearGradient x1="49.9993801%" y1="0%" x2="49.9993801%" y2="97.0782844%" id="linearGradient-4">
            <stop stop-color="#FFFFFF" stop-opacity="0" offset="0%"></stop>
            <stop stop-color="#FFFFFF" offset="100%"></stop>
        </linearGradient>
        <linearGradient x1="100%" y1="50%" x2="0%" y2="50%" id="linearGradient-5">
            <stop stop-color="#FFFFFF" stop-opacity="0" offset="0%"></stop>
            <stop stop-color="#FFFFFF" stop-opacity="0.5" offset="100%"></stop>
        </linearGradient>
        <polygon id="path-6" points="29.0750644 0 59.3131313 16.5508475 29.0750644 34.2838983 0 16.5508475"></polygon>
        <linearGradient x1="35.7214233%" y1="26.4300685%" x2="73.5429445%" y2="68.8560377%" id="linearGradient-7">
            <stop stop-color="#F2F8FF" offset="0%"></stop>
            <stop stop-color="#499BFF" offset="100%"></stop>
        </linearGradient>
    </defs>
    <g id="-全部页面" stroke="none" stroke-width="1" fill="none" fill-rule="evenodd">
        <g id="系统管理-风扇&amp;散热" transform="translate(-617.000000, -821.000000)">
            <g id="编组-10" transform="translate(312.000000, 613.000000)">
                <g id="编组-7" transform="translate(32.000000, 37.000000)">
                    <g id="编组-6" transform="translate(0.000000, 48.000000)">
                        <g id="编组-91" transform="translate(274.000000, 123.000000)">
                            <g id="风扇" transform="translate(11.862626, 17.250000)" fill="#90B4FF" fill-rule="nonzero">
                                <path d="M33.9645997,20.5703506 C33.3587312,16.6780057 29.749138,14.338396 25.2378536,14.843233 C23.3532783,15.0536045 20.0215249,16.639742 19.6103653,15.6406142 C18.8929966,12.2339744 23.1037689,11.2444125 26.1754712,11.0857125 C30.1791329,10.8782813 31.5127954,8.56733011 29.5686912,5.06989261 C27.4901434,1.33013182 22.275675,-0.928206818 18.874045,0.438032386 C15.3741692,1.84351534 13.9243558,5.70669205 14.9941304,10.8658534 C15.2682885,12.1795585 16.5329658,13.9234943 14.4922824,14.4760824 C12.9715847,14.8891023 11.9620364,13.3593801 11.5821527,11.8161716 C11.2797029,10.5827966 10.9639986,9.33319091 10.8497079,8.07205909 C10.4537406,3.68452159 8.08983425,2.56197784 4.41683657,5.07941932 C0.772324371,7.57870909 -1.05272214,12.3860489 0.657064803,15.6731148 C2.84133826,19.8723528 6.58037572,20.2108057 10.6644555,19.2976926 C11.9829258,19.0022864 13.7616592,17.7469176 14.2588953,19.8703926 C14.5915746,21.2950466 13.0490574,22.2492852 11.5764943,22.8209659 C10.3439843,23.3008688 9.13895211,23.4481602 7.84788217,23.5131614 C3.77135974,23.7158881 2.59558812,25.9273773 4.58980344,29.4964415 C6.68342723,33.2453369 11.9905219,35.4319705 15.3363436,33.9242028 C19.1084785,32.2252347 21.2455474,27.7793608 19.2947385,22.5646858 C19.1245621,21.6162494 17.9923907,20.4345068 19.0802643,19.9315909 C20.1207784,19.4516489 21.0442501,20.2614188 21.5574536,21.0062267 C22.7596954,22.7540438 23.273829,24.6546801 23.0376128,26.9332091 C22.7436893,29.765071 24.311669,31.1333489 27.2227676,30.5969915 C31.0194348,29.896171 34.5902336,24.5935602 33.9645997,20.5703506 Z M16.8864182,18.7403608 C16.0678194,18.7403608 15.4043987,18.0691398 15.4043987,17.2412182 C15.4043987,16.4132182 16.0678194,15.7420364 16.8864182,15.7420364 C17.7050169,15.7420364 18.3684376,16.4132182 18.3684376,17.2412182 C18.3684376,18.0691398 17.7050169,18.7403608 16.8864182,18.7403608 L16.8864182,18.7403608 Z" id="形状"></path>
                            </g>
                            <g id="编组-76">
                                <g id="底框" transform="translate(0.000000, 0.000000)" opacity="0.200000003">
                                    <g id="Rectangle-19" transform="translate(14.628024, 26.057960) scale(-1, -1) translate(-14.628024, -26.057960) ">
                                        <use fill-opacity="0.2" fill="url(#linearGradient-1)" xlink:href="#path-3"></use>
                                        <use fill="url(#linearGradient-2)" xlink:href="#path-3"></use>
                                    </g>
                                </g>
                                <g id="外框">
                                    <g id="Polygon-Copy-3" opacity="0.5">
                                        <use fill="url(#linearGradient-4)" xlink:href="#path-6"></use>
                                        <use fill="url(#linearGradient-5)" xlink:href="#path-6"></use>
                                    </g>
                                    <path d="M59.3131313,16.5508475 L29.0750644,34.2838983 L4.4408921e-16,16.5508475" id="Polygon-Copy-2" stroke="#A2C9FF" stroke-width="0.5" opacity="0.8" stroke-dasharray="2,1.799999952316284"></path>
                                    <line x1="29.0750644" y1="34.2838983" x2="29.0750644" y2="68.5677966" id="Line" stroke="#A2C9FF" stroke-width="0.5" opacity="0.6" stroke-linecap="square" stroke-dasharray="2,1.799999952316284"></line>
                                    <path d="M29.0807991,0.687137227 L58.7131313,16.9064349 L58.7131313,51.6732522 L29.0811035,69.0508927 L0.6,51.680102 L0.6,16.8997019 L29.0807991,0.687137227 Z" id="Polygon-Copy" stroke="#A2C9FF" stroke-width="1.2" fill="url(#linearGradient-7)" opacity="0.200000003"></path>
                                </g>
                            </g>
                        </g>
                    </g>
                </g>
            </g>
        </g>
    </g>
</svg>