<?xml version="1.0" encoding="UTF-8"?>
<svg width="62px" height="70px" viewBox="0 0 62 70" version="1.1" xmlns="http://www.w3.org/2000/svg" xmlns:xlink="http://www.w3.org/1999/xlink">
    <title>编组 92</title>
    <defs>
        <linearGradient x1="50%" y1="0%" x2="50%" y2="98.1006856%" id="linearGradient-1">
            <stop stop-color="#C5D2E3" offset="0%"></stop>
            <stop stop-color="#E5ECF6" offset="100%"></stop>
        </linearGradient>
        <linearGradient x1="43.2667133%" y1="40.8235177%" x2="67.7286894%" y2="54.2473324%" id="linearGradient-2">
            <stop stop-color="#43547C" stop-opacity="0" offset="0%"></stop>
            <stop stop-color="#489AFF" offset="100%"></stop>
        </linearGradient>
        <polygon id="path-3" points="0 17.7667906 29.5948445 1.06022338e-14 29.5948445 35.5335812 0 52.1159191"></polygon>
        <linearGradient x1="49.9993801%" y1="0%" x2="49.9993801%" y2="97.0782844%" id="linearGradient-4">
            <stop stop-color="#FFFFFF" stop-opacity="0" offset="0%"></stop>
            <stop stop-color="#FFFFFF" offset="100%"></stop>
        </linearGradient>
        <linearGradient x1="100%" y1="50%" x2="0%" y2="50%" id="linearGradient-5">
            <stop stop-color="#FFFFFF" stop-opacity="0" offset="0%"></stop>
            <stop stop-color="#FFFFFF" stop-opacity="0.5" offset="100%"></stop>
        </linearGradient>
        <polygon id="path-6" points="29.4117647 0 60 16.5508475 29.4117647 34.2838983 0 16.5508475"></polygon>
        <linearGradient x1="35.3888058%" y1="26.4300685%" x2="74.0913743%" y2="68.8560377%" id="linearGradient-7">
            <stop stop-color="#F2F8FF" offset="0%"></stop>
            <stop stop-color="#499BFF" offset="100%"></stop>
        </linearGradient>
    </defs>
    <g id="-全部页面" stroke="none" stroke-width="1" fill="none" fill-rule="evenodd">
        <g id="系统管理-电源&amp;功率-电源信息" transform="translate(-617.000000, -617.000000)">
            <g id="编组-2" transform="translate(344.000000, 255.000000)">
                <g id="编组-92" transform="translate(274.000000, 362.000000)">
                    <g id="编组-90" transform="translate(15.000000, 17.250000)">
                        <line x1="7.79807056" y1="0" x2="7.79807056" y2="8.47368421" id="路径-5" stroke="#90B4FF" stroke-width="3"></line>
                        <line x1="21.11386" y1="0" x2="21.11386" y2="8.47368421" id="路径-6" stroke="#90B4FF" stroke-width="3"></line>
                        <line x1="14.4896755" y1="2.08710609" x2="14.4896755" y2="8.47368421" id="路径-7" stroke="#90B4FF" stroke-width="2"></line>
                        <path d="M1.36779477e-12,8.47368421 L28.5476345,8.47368421 L28.5476345,18.4380279 C23.2908117,20.9374029 20.3679238,25.0903237 19.778971,30.8967903 C18.805605,30.8991829 16.7518581,30.8991829 13.6177304,30.8967903 L9.03015443,30.8967903 C8.75430711,25.2451674 5.74425563,21.0922466 1.36779477e-12,18.4380279 C0.00927608786,18.1027537 0.00927608786,17.2832444 1.36779477e-12,15.9795002 L1.36779477e-12,8.47368421 Z" id="路径-10" stroke="#90B4FF" stroke-width="2" fill="#90B4FF"></path>
                        <line x1="3.02631579" y1="13.1265798" x2="26.3193445" y2="13.1265798" id="路径-11" stroke="#FFFFFF" stroke-width="2"></line>
                        <line x1="5.36466401" y1="24" x2="11.7530738" y2="24" id="路径-12" stroke="#FFFFFF" stroke-width="2"></line>
                        <line x1="23.25" y1="24.3026316" x2="17.3941608" y2="24.3026316" id="路径-13" stroke="#FFFFFF" stroke-width="2"></line>
                        <line x1="7.86842105" y1="27.75" x2="11.7341518" y2="27.75" id="路径-14" stroke="#FFFFFF" stroke-width="2"></line>
                        <line x1="21.1842105" y1="27.75" x2="17.3941608" y2="27.75" id="路径-15" stroke="#FFFFFF" stroke-width="2"></line>
                        <line x1="10.6660254" y1="33.7192483" x2="18.0465296" y2="33.7192483" id="路径-18" stroke="#90B4FF" stroke-width="3"></line>
                        <path d="M1.36779477e-12,8.74500083 L27.5476345,8.74500083 C28.0999192,8.74500083 28.5476345,9.19271608 28.5476345,9.74500083 L28.5476345,18.7093445 L28.5476345,18.7093445 C23.2908117,21.2087195 20.3679238,25.3616403 19.778971,31.1681069 C18.805605,31.1704995 15.2226661,31.1704995 9.03015443,31.1681069 C8.75430711,25.516484 5.74425563,21.3635632 1.36779477e-12,18.7093445 C0.00927608786,18.3740703 0.00927608786,15.0526224 1.36779477e-12,8.74500083 Z" id="路径-10备份" stroke="#90B4FF" stroke-width="2"></path>
                    </g>
                    <g id="编组-76备份-2">
                        <g id="底框" transform="translate(0.000000, 0.000000)" opacity="0.200000003">
                            <g id="Rectangle-19" transform="translate(14.797422, 26.057960) scale(-1, -1) translate(-14.797422, -26.057960) ">
                                <use fill-opacity="0.2" fill="url(#linearGradient-1)" xlink:href="#path-3"></use>
                                <use fill="url(#linearGradient-2)" xlink:href="#path-3"></use>
                            </g>
                        </g>
                        <g id="外框">
                            <g id="Polygon-Copy-3" opacity="0.5">
                                <use fill="url(#linearGradient-4)" xlink:href="#path-6"></use>
                                <use fill="url(#linearGradient-5)" xlink:href="#path-6"></use>
                            </g>
                            <path d="M60,16.5508475 L29.4117647,34.2838983 L4.4408921e-16,16.5508475" id="Polygon-Copy-2" stroke="#A2C9FF" stroke-width="0.5" opacity="0.8" stroke-dasharray="2,1.799999952316284"></path>
                            <line x1="29.4117647" y1="34.2838983" x2="29.4117647" y2="68.5677966" id="Line" stroke="#A2C9FF" stroke-width="0.5" opacity="0.6" stroke-linecap="square" stroke-dasharray="2,1.799999952316284"></line>
                            <path d="M29.4174492,0.685276969 L59.4,16.9083974 L59.4,51.6712531 L29.4177527,69.0529919 L0.6,51.678085 L0.6,16.901686 L29.4174492,0.685276969 Z" id="Polygon-Copy" stroke="#A2C9FF" stroke-width="1.2" fill="url(#linearGradient-7)" opacity="0.200000003"></path>
                        </g>
                    </g>
                </g>
            </g>
        </g>
    </g>
</svg>