<?xml version="1.0" encoding="UTF-8"?>
<svg width="13px" height="13px" viewBox="0 0 13 13" version="1.1" xmlns="http://www.w3.org/2000/svg" xmlns:xlink="http://www.w3.org/1999/xlink">
    <title>编组 15</title>
    <g id="EMM" stroke="none" stroke-width="1" fill="none" fill-rule="evenodd">
        <g id="01-EMM首页-FD未纳管" transform="translate(-208.000000, -763.000000)">
            <g id="编组-22" transform="translate(204.000000, 760.000000)">
                <g id="编组-15" transform="translate(4.000000, 3.000000)">
                    <circle id="Oval-2备份-3" fill="#FFFFFF" cx="6.5" cy="6.5" r="6.5"></circle>
                    <path d="M6.17831782,10.4009807 C4.22610594,10.091683 3.25,9.29433227 3.25,8.00892857 C3.25,5.97767857 5.13708429,4.61799089 5.6875,3.94642857 C6.01774942,3.54349118 6.05077437,2.84507245 5.78657483,1.85117237 L5.90665344,1.81925295 C5.89590571,1.77882073 5.91996974,1.73733118 5.96040196,1.72658344 C5.98191483,1.72086487 6.0048541,1.7248979 6.02312639,1.73761125 C7.3615526,2.66885061 8.06217713,3.40512305 8.125,3.94642857 C8.37143895,6.06983957 7.2332097,6.65639534 6.5,8.00892857 C6.06007418,8.82044851 6.0160816,9.5597255 6.36802225,10.2267595 L6.26356982,10.2818708 C6.28467743,10.3218761 6.26935782,10.3714179 6.22935251,10.3925255 C6.21370116,10.4007835 6.19579611,10.4037499 6.17831782,10.4009807 Z M9.05570614,8.93900955 C8.55120177,9.20549752 8.04514033,9.41564843 7.5375218,9.56946227 L7.53755803,9.56958184 C7.43178143,9.60163328 7.32004971,9.54186723 7.28799827,9.43609062 C7.28454312,9.42468787 7.28211318,9.41299933 7.28073741,9.40116429 C7.21088197,8.80023206 7.25646857,8.33615349 7.41749722,8.00892857 C7.68935978,7.45647904 8.28680001,7.19642857 8.9375,6.38392857 C9.32791999,5.89642857 9.36696199,5.18955358 9.054626,4.26330358 L9.20426448,4.21284476 C9.20622873,4.21866987 9.20944533,4.22399392 9.21368805,4.22844246 C10.0822084,5.13909524 10.5318124,5.85759061 10.5625,6.38392857 C10.6395668,7.70573634 9.92423271,8.48023871 9.05570614,8.93900955 Z" id="Shape-Copy备份-3" fill="#F45C5E"></path>
                </g>
            </g>
        </g>
    </g>
</svg>