<?xml version="1.0" encoding="UTF-8"?>
<svg width="13px" height="14px" viewBox="0 0 13 14" version="1.1" xmlns="http://www.w3.org/2000/svg" xmlns:xlink="http://www.w3.org/1999/xlink">
    <title>编组 15</title>
    <g id="EMM" stroke="none" stroke-width="1" fill="none" fill-rule="evenodd">
        <g id="01-EMM首页-FD未纳管" transform="translate(-651.000000, -611.000000)">
            <g id="编组-27备份-4" transform="translate(647.000000, 608.000000)">
                <g id="编组-15" transform="translate(4.000000, 3.333333)">
                    <circle id="Oval-2备份-3" fill="#FFFFFF" cx="6.5" cy="6.5" r="6.5"></circle>
                    <path d="M6.17831782,11.3295522 C4.22610594,11.0202544 3.25,10.2229037 3.25,8.9375 C3.25,6.90625 5.13708429,5.54656232 5.6875,4.875 C6.01774942,4.47206261 6.05077437,3.77364388 5.78657483,2.7797438 L5.90665344,2.74782438 C5.89590571,2.70739216 5.91996974,2.66590261 5.96040196,2.65515487 C5.98191483,2.6494363 6.0048541,2.65346933 6.02312639,2.66618268 C7.3615526,3.59742204 8.06217713,4.33369448 8.125,4.875 C8.37143895,6.998411 7.2332097,7.58496677 6.5,8.9375 C6.06007418,9.74901994 6.0160816,10.4882969 6.36802225,11.155331 L6.26356982,11.2104422 C6.28467743,11.2504475 6.26935782,11.2999893 6.22935251,11.3210969 C6.21370116,11.3293549 6.19579611,11.3323213 6.17831782,11.3295522 Z M9.05570614,9.86758098 C8.55120177,10.134069 8.04514033,10.3442199 7.5375218,10.4980337 L7.53755803,10.4981533 C7.43178143,10.5302047 7.32004971,10.4704387 7.28799827,10.364662 C7.28454312,10.3532593 7.28211318,10.3415708 7.28073741,10.3297357 C7.21088197,9.72880349 7.25646857,9.26472492 7.41749722,8.9375 C7.68935978,8.38505046 8.28680001,8.125 8.9375,7.3125 C9.32791999,6.825 9.36696199,6.11812501 9.054626,5.19187501 L9.20426448,5.14141619 C9.20622873,5.1472413 9.20944533,5.15256535 9.21368805,5.15701389 C10.0822084,6.06766667 10.5318124,6.78616204 10.5625,7.3125 C10.6395668,8.63430777 9.92423271,9.40881014 9.05570614,9.86758098 Z" id="Shape-Copy备份-3" fill="#FDCA5A"></path>
                </g>
            </g>
        </g>
    </g>
</svg>